<svg width="400" height="300" xmlns="http://www.w3.org/2000/svg">
  <defs>
    <linearGradient id="amsterdamSky" x1="0%" y1="0%" x2="0%" y2="100%">
      <stop offset="0%" style="stop-color:#B0C4DE;stop-opacity:1" />
      <stop offset="100%" style="stop-color:#778899;stop-opacity:1" />
    </linearGradient>
  </defs>
  <rect width="100%" height="100%" fill="url(#amsterdamSky)"/>
  <!-- Canal -->
  <rect x="0" y="200" width="400" height="40" fill="#4682B4"/>
  <rect x="0" y="260" width="400" height="40" fill="#228B22"/>
  <!-- Dutch houses -->
  <rect x="50" y="120" width="30" height="80" fill="#8B4513"/>
  <polygon points="65,120 50,100 80,100" fill="#DC143C"/>
  <rect x="85" y="110" width="35" height="90" fill="#D2691E"/>
  <polygon points="102,110 85,90 120,90" fill="#DC143C"/>
  <rect x="125" y="125" width="32" height="75" fill="#CD853F"/>
  <polygon points="141,125 125,105 157,105" fill="#DC143C"/>
  <rect x="162" y="115" width="38" height="85" fill="#8B4513"/>
  <polygon points="181,115 162,95 200,95" fill="#DC143C"/>
  <rect x="205" y="130" width="30" height="70" fill="#D2691E"/>
  <polygon points="220,130 205,110 235,110" fill="#DC143C"/>
  <rect x="240" y="120" width="35" height="80" fill="#CD853F"/>
  <polygon points="257,120 240,100 275,100" fill="#DC143C"/>
  <rect x="280" y="135" width="32" height="65" fill="#8B4513"/>
  <polygon points="296,135 280,115 312,115" fill="#DC143C"/>
  <!-- Windows -->
  <rect x="60" y="140" width="8" height="12" fill="#4169E1"/>
  <rect x="95" y="130" width="10" height="15" fill="#4169E1"/>
  <rect x="135" y="145" width="8" height="12" fill="#4169E1"/>
  <rect x="175" y="135" width="10" height="15" fill="#4169E1"/>
  <rect x="215" y="150" width="8" height="12" fill="#4169E1"/>
  <rect x="250" y="140" width="10" height="15" fill="#4169E1"/>
  <rect x="290" y="155" width="8" height="12" fill="#4169E1"/>
  <circle cx="350" cy="60" r="20" fill="#FFD700"/>
  <text x="200" y="50" font-family="Arial, sans-serif" font-size="24" font-weight="bold" text-anchor="middle" fill="white" stroke="#000" stroke-width="1">AMSTERDAM</text>
</svg>
