<svg width="1600" height="900" xmlns="http://www.w3.org/2000/svg">
  <defs>
    <linearGradient id="cityGradient" x1="0%" y1="0%" x2="0%" y2="100%">
      <stop offset="0%" style="stop-color:#4169E1;stop-opacity:1" />
      <stop offset="100%" style="stop-color:#191970;stop-opacity:1" />
    </linearGradient>
  </defs>
  <rect width="100%" height="100%" fill="url(#cityGradient)"/>
  <!-- Buildings -->
  <rect x="100" y="500" width="80" height="400" fill="#2F4F4F"/>
  <rect x="200" y="400" width="100" height="500" fill="#696969"/>
  <rect x="320" y="450" width="90" height="450" fill="#2F4F4F"/>
  <rect x="430" y="350" width="120" height="550" fill="#696969"/>
  <rect x="570" y="480" width="80" height="420" fill="#2F4F4F"/>
  <rect x="670" y="300" width="150" height="600" fill="#696969"/>
  <rect x="840" y="420" width="100" height="480" fill="#2F4F4F"/>
  <rect x="960" y="380" width="110" height="520" fill="#696969"/>
  <rect x="1090" y="460" width="90" height="440" fill="#2F4F4F"/>
  <rect x="1200" y="350" width="130" height="550" fill="#696969"/>
  <rect x="1350" y="500" width="100" height="400" fill="#2F4F4F"/>
  <!-- Mount Fuji silhouette -->
  <polygon points="1500,600 1400,400 1600,400" fill="#8B008B" opacity="0.7"/>
  <circle cx="200" cy="150" r="50" fill="#FFD700"/>
  <text x="800" y="200" font-family="Arial, sans-serif" font-size="72" font-weight="bold" text-anchor="middle" fill="white" stroke="#000" stroke-width="2">TOKYO</text>
  <text x="800" y="270" font-family="Arial, sans-serif" font-size="36" text-anchor="middle" fill="white" stroke="#000" stroke-width="1">Tradizione e Modernità</text>
</svg>
